<svg width="22" height="22" viewBox="0 0 22 22" fill="none" xmlns="http://www.w3.org/2000/svg">
<path d="M3.4375 9.62497C3.25516 9.62497 3.0803 9.55254 2.95136 9.4236C2.82243 9.29467 2.75 9.1198 2.75 8.93747V3.43884C2.75 3.25651 2.82243 3.08164 2.95136 2.95271C3.0803 2.82378 3.25516 2.75134 3.4375 2.75134H8.9375C9.11984 2.75134 9.2947 2.82378 9.42364 2.95271C9.55257 3.08164 9.625 3.25651 9.625 3.43884V8.93747C9.625 9.1198 9.55257 9.29467 9.42364 9.4236C9.2947 9.55254 9.11984 9.62497 8.9375 9.62497H3.4375ZM13.0625 9.62497C12.8802 9.62497 12.7053 9.55254 12.5764 9.4236C12.4474 9.29467 12.375 9.1198 12.375 8.93747V3.43884C12.375 3.25651 12.4474 3.08164 12.5764 2.95271C12.7053 2.82378 12.8802 2.75134 13.0625 2.75134H18.5611C18.7435 2.75134 18.9183 2.82378 19.0473 2.95271C19.1762 3.08164 19.2486 3.25651 19.2486 3.43884V8.93747C19.2486 9.1198 19.1762 9.29467 19.0473 9.4236C18.9183 9.55254 18.7435 9.62497 18.5611 9.62497H13.0625ZM3.4375 19.25C3.25516 19.25 3.0803 19.1775 2.95136 19.0486C2.82243 18.9197 2.75 18.7448 2.75 18.5625V13.0625C2.75 12.8801 2.82243 12.7053 2.95136 12.5763C3.0803 12.4474 3.25516 12.375 3.4375 12.375H8.9375C9.11984 12.375 9.2947 12.4474 9.42364 12.5763C9.55257 12.7053 9.625 12.8801 9.625 13.0625V18.5625C9.625 18.7448 9.55257 18.9197 9.42364 19.0486C9.2947 19.1775 9.11984 19.25 8.9375 19.25H3.4375ZM13.0625 19.25C12.8802 19.25 12.7053 19.1775 12.5764 19.0486C12.4474 18.9197 12.375 18.7448 12.375 18.5625V13.0625C12.375 12.8801 12.4474 12.7053 12.5764 12.5763C12.7053 12.4474 12.8802 12.375 13.0625 12.375H18.5611C18.7435 12.375 18.9183 12.4474 19.0473 12.5763C19.1762 12.7053 19.2486 12.8801 19.2486 13.0625V18.5625C19.2486 18.7448 19.1762 18.9197 19.0473 19.0486C18.9183 19.1775 18.7435 19.25 18.5611 19.25H13.0625Z" fill="white"/>
</svg>
