<svg width="100" height="100" viewBox="0 0 100 100" fill="none" xmlns="http://www.w3.org/2000/svg">
<path d="M80.6664 49.4999C77.7259 46.6914 73.816 45.1242 69.7497 45.1242C65.6835 45.1242 61.7737 46.6914 58.833 49.4999L50.9997 57.3332C50.4832 57.8395 50.0742 58.445 49.7974 59.1132C49.5205 59.7815 49.3815 60.4987 49.3887 61.222C49.3814 61.9537 49.52 62.6794 49.7967 63.3565C50.0734 64.0339 50.4824 64.6492 50.9997 65.1665L85.6109 99.7775C89.5842 99.2812 93.2295 97.3199 95.833 94.2775C98.5164 91.2665 99.9997 87.372 99.9997 83.3332V68.7775L80.6664 49.4999Z" fill="#5D4867"/>
<path d="M54.9445 53.389L41.1667 39.5557C38.2197 36.7598 34.3123 35.2012 30.25 35.2012C26.1877 35.2012 22.2803 36.7598 19.3333 39.5557L0 58.889V83.3335C0.0131667 87.7497 1.77333 91.9813 4.89617 95.104C8.01883 98.2268 12.2505 99.987 16.6667 100H83.3333C84.1 100.011 84.8612 99.939 85.6112 99.778C89.5845 99.2815 93.2297 97.3203 95.8333 94.278L54.9445 53.389Z" fill="#35293C"/>
<path d="M16.6667 0H64.2167H83.3333C92.538 0 100 7.462 100 16.6667V68.7778L80.6667 49.5C77.7262 46.6915 73.8163 45.1243 69.75 45.1243C65.6837 45.1243 61.7738 46.6915 58.8333 49.5L54.9445 53.3888L41.1667 39.5555C38.2197 36.7597 34.3123 35.201 30.25 35.201C26.1877 35.201 22.2803 36.7597 19.3333 39.5555L0 58.8888V16.6667C0.0131667 12.2505 1.77333 8.01883 4.89617 4.89617C8.01883 1.77333 12.2505 0.0131667 16.6667 0Z" fill="#EBEBEE"/>
<path d="M68.7048 66.7048L60.927 58.927ZM62.1111 44.5556C62.1111 46.5983 61.7088 48.6211 60.927 50.5084C60.1453 52.3957 58.9995 54.1105 57.555 55.555C56.1105 56.9995 54.3957 58.1453 52.5084 58.927C50.6211 59.7088 48.5983 60.1111 46.5556 60.1111C44.5128 60.1111 42.49 59.7088 40.6027 58.927C38.7154 58.1453 37.0006 56.9995 35.5561 55.555C34.1116 54.1105 32.9658 52.3957 32.1841 50.5084C31.4024 48.6211 31 46.5983 31 44.5556C31 40.43 32.6389 36.4733 35.5561 33.5561C38.4733 30.6389 42.43 29 46.5556 29C50.6811 29 54.6378 30.6389 57.555 33.5561C60.4722 36.4733 62.1111 40.43 62.1111 44.5556Z" fill="white"/>
<path d="M68.7048 66.7048L60.927 58.927M62.1111 44.5556C62.1111 46.5983 61.7088 48.6211 60.927 50.5084C60.1453 52.3957 58.9995 54.1105 57.555 55.555C56.1105 56.9995 54.3957 58.1453 52.5084 58.927C50.6211 59.7088 48.5983 60.1111 46.5556 60.1111C44.5128 60.1111 42.49 59.7088 40.6027 58.927C38.7154 58.1453 37.0006 56.9995 35.5561 55.555C34.1116 54.1105 32.9658 52.3957 32.1841 50.5084C31.4024 48.6211 31 46.5983 31 44.5556C31 40.43 32.6389 36.4733 35.5561 33.5561C38.4733 30.6389 42.43 29 46.5556 29C50.6811 29 54.6378 30.6389 57.555 33.5561C60.4722 36.4733 62.1111 40.43 62.1111 44.5556Z" stroke="white" stroke-width="5" stroke-linecap="round"/>
<path fill-rule="evenodd" clip-rule="evenodd" d="M46.5085 46.519L51.56 51.5648C51.8281 51.8325 52.1916 51.9829 52.5707 51.9829C52.9498 51.9829 53.3133 51.8325 53.5814 51.5648C53.8494 51.297 54 50.9339 54 50.5552C54 50.1766 53.8494 49.8135 53.5814 49.5457L48.528 44.5L53.5804 39.4543C53.7131 39.3217 53.8183 39.1643 53.8901 38.9912C53.9618 38.818 53.9988 38.6323 53.9987 38.4449C53.9987 38.2575 53.9617 38.0719 53.8898 37.8987C53.818 37.7256 53.7127 37.5682 53.5799 37.4357C53.4472 37.3032 53.2897 37.1981 53.1163 37.1264C52.9429 37.0547 52.7571 37.0179 52.5694 37.0179C52.3817 37.0179 52.1959 37.0549 52.0226 37.1267C51.8492 37.1984 51.6917 37.3036 51.5591 37.4362L46.5085 42.4819L41.4571 37.4362C41.3253 37.2998 41.1677 37.191 40.9934 37.1161C40.8191 37.0413 40.6317 37.0018 40.4419 37.0001C40.2522 36.9983 40.0641 37.0343 39.8884 37.106C39.7128 37.1777 39.5532 37.2836 39.419 37.4175C39.2848 37.5515 39.1786 37.7108 39.1067 37.8862C39.0347 38.0615 38.9985 38.2494 39 38.4389C39.0016 38.6285 39.0409 38.8158 39.1157 38.9899C39.1905 39.1641 39.2993 39.3216 39.4357 39.4533L44.4891 44.5L39.4367 49.5467C39.3003 49.6784 39.1915 49.8359 39.1167 50.0101C39.0419 50.1842 39.0026 50.3715 39.001 50.5611C38.9994 50.7506 39.0357 50.9385 39.1076 51.1138C39.1795 51.2892 39.2857 51.4485 39.4199 51.5825C39.5542 51.7164 39.7137 51.8223 39.8894 51.894C40.065 51.9657 40.2532 52.0017 40.4429 51.9999C40.6326 51.9982 40.8201 51.9587 40.9944 51.8839C41.1687 51.809 41.3263 51.7002 41.458 51.5638L46.5085 46.519Z" fill="#35293C"/>
</svg>
