<svg width="42" height="42" viewBox="0 0 42 42" fill="none" xmlns="http://www.w3.org/2000/svg">
<path d="M22.7172 0.466306C22.977 0.560524 23.2401 0.643898 23.5038 0.727292C23.6853 0.784692 23.8662 0.843728 24.047 0.902875C24.8184 1.1362 25.6162 1.15935 26.4154 1.03764C26.5055 1.02425 26.5957 1.01086 26.6885 0.997063C26.7856 1.0898 26.7856 1.0898 26.8038 1.43757C26.8013 1.76539 26.7236 1.99247 26.5914 2.2954C26.5957 2.48587 26.5957 2.48587 26.6885 2.66636C26.8933 2.78598 26.8933 2.78598 27.1436 2.87502C27.6815 3.11435 27.9349 3.39672 28.2419 3.87196C28.2868 3.93783 28.3318 4.0037 28.378 4.07156C28.4984 4.25054 28.6156 4.42984 28.7273 4.61387C28.761 4.66334 28.7947 4.71282 28.8293 4.7638C28.9615 5.08081 28.9492 5.38992 28.9473 5.726C28.9475 5.79856 28.9477 5.87112 28.9479 5.94588C28.948 6.09975 28.9476 6.25363 28.9468 6.40751C28.9458 6.6385 28.9468 6.86943 28.948 7.10042C28.9491 8.24145 28.9354 9.39876 28.4361 10.4564C28.404 10.487 28.372 10.5176 28.339 10.5491C28.2903 10.7691 28.2903 10.7691 28.339 11.0128C28.5702 11.2189 28.5702 11.2189 28.8244 11.3838C29.1402 11.987 28.8984 12.9672 28.8305 13.6211C28.822 13.7068 28.8136 13.7925 28.8049 13.8808C28.7881 14.0497 28.7707 14.2184 28.7527 14.3871C28.736 14.5471 28.7207 14.7072 28.7069 14.8674C28.6965 14.9778 28.6965 14.9778 28.686 15.0904C28.6804 15.1552 28.6749 15.2199 28.6692 15.2866C28.5957 15.6219 28.4016 15.7866 28.1448 16.0207C28.0628 16.0608 27.9809 16.1008 27.8964 16.1421C27.5891 16.3454 27.5678 16.4828 27.4834 16.8264C27.2811 17.5337 26.9528 18.1526 26.5925 18.7976C26.5439 18.892 26.5439 18.892 26.4943 18.9883C26.4431 19.0862 26.3919 19.1841 26.3392 19.2849C26.1696 19.6687 26.1651 20.0201 26.1704 20.4319C26.1692 20.5837 26.168 20.7354 26.1667 20.8871C26.1663 21.1236 26.1667 21.36 26.1681 21.5965C26.1689 21.8266 26.1668 22.0566 26.1644 22.2867C26.1657 22.3569 26.167 22.427 26.1683 22.4993C26.1627 22.8836 26.1237 23.0435 25.8921 23.3739C25.6385 23.6087 25.397 23.7953 25.101 23.9781C25.0022 24.0399 24.9035 24.1017 24.8017 24.1654C24.6484 24.2595 24.6484 24.2595 24.4919 24.3556C23.8015 24.784 23.1216 25.218 22.4613 25.688C22.2265 25.8483 21.9864 25.9908 21.737 26.1292C21.8472 26.4448 21.905 26.4673 22.18 26.6451C22.4023 26.8207 22.5005 26.914 22.5721 27.1834C22.5945 27.8225 22.4051 28.2446 21.9555 28.7201C21.7674 29.0166 21.7901 29.3192 21.8341 29.6533C21.9444 29.895 22.0548 30.1057 22.1921 30.3314C22.5032 30.8833 22.7257 31.4227 22.89 32.0297C22.9084 32.097 22.9269 32.1644 22.946 32.2338C23.2302 33.3461 23.3256 34.4837 23.3997 35.6233C23.4081 35.747 23.4166 35.8706 23.4251 35.9943C23.4454 36.2918 23.4652 36.5893 23.4846 36.8869C23.7361 36.8532 23.8465 36.8235 24.0148 36.6366C24.0578 36.5692 24.1009 36.5017 24.1453 36.4322C24.1936 36.3578 24.242 36.2834 24.2918 36.2066C24.3418 36.127 24.3918 36.0474 24.4434 35.9653C24.4952 35.8843 24.5471 35.8034 24.6006 35.72C24.7025 35.5607 24.804 35.4012 24.9049 35.2414C25.0084 35.0787 25.1151 34.9179 25.2231 34.7579C25.866 33.7991 26.2505 32.7099 26.4943 31.6008C26.5195 31.5004 26.5195 31.5004 26.5451 31.398C26.6024 31.0752 26.607 30.7583 26.6083 30.4319C26.6089 30.3625 26.6096 30.2931 26.6102 30.2215C26.6116 30.0714 26.6127 29.9214 26.6137 29.7713C26.6153 29.5339 26.6176 29.2966 26.62 29.0593C26.6269 28.3848 26.6327 27.7102 26.6377 27.0357C26.6408 26.6226 26.6448 26.2096 26.6494 25.7966C26.6509 25.6391 26.6521 25.4816 26.653 25.3241C26.6541 25.1045 26.6565 24.885 26.6591 24.6654C26.6591 24.6001 26.6592 24.5347 26.6593 24.4673C26.6664 24.0174 26.6664 24.0174 26.8827 23.8107C27.432 23.8464 27.9424 23.9984 28.4664 24.1527C28.5513 24.1773 28.6362 24.202 28.7237 24.2273C29.3551 24.412 29.9809 24.6111 30.6061 24.8141C31.1778 24.9977 31.7547 25.154 32.3368 25.3044C32.8715 25.4434 33.3999 25.597 33.9276 25.7583C35.4571 26.2436 35.4571 26.2436 37.0222 26.5987C37.8714 26.7505 38.6046 27.015 39.1157 27.7058C39.8239 28.8511 40.2625 30.0814 40.6145 31.3631C40.6437 31.469 40.673 31.5748 40.7031 31.6838C40.762 31.8974 40.8207 32.111 40.879 32.3247C40.9496 32.582 41.0219 32.8388 41.095 33.0955C41.3518 34.0149 41.5454 34.9413 41.7188 35.8784C41.7401 35.9917 41.7614 36.105 41.7833 36.2217C42.0795 37.8844 42.0795 37.8844 41.737 38.3649C41.1828 38.7289 40.516 38.8857 39.8742 39.0604C39.388 39.194 38.9038 39.3319 38.4209 39.476C37.7405 39.6764 37.0558 39.8568 36.3669 40.0284C36.3034 40.0442 36.2398 40.0601 36.1744 40.0764C34.9055 40.3905 33.6274 40.6266 32.337 40.8446C31.8846 40.9216 31.4378 41.0092 30.9907 41.1105C30.4052 41.2427 29.8195 41.3447 29.2249 41.4311C29.1184 41.4466 29.0119 41.4621 28.9021 41.4781C27.5546 41.6672 26.2009 41.789 24.8438 41.8948C24.7146 41.905 24.7146 41.905 24.5828 41.9154C23.3918 42.0043 22.1967 41.9966 21.0028 41.9991C20.8835 41.9995 20.8835 41.9995 20.7619 41.9999C18.8815 42.0043 17.0329 41.8885 15.1655 41.6803C15.0254 41.6649 15.0254 41.6649 14.8824 41.6492C12.9854 41.4398 11.1159 41.1649 9.24958 40.7754C8.91186 40.7055 8.57339 40.6449 8.23305 40.588C7.53709 40.4712 6.86754 40.3115 6.18929 40.1241C5.67356 39.9828 5.15645 39.867 4.63148 39.7618C3.9643 39.6264 3.33369 39.4485 2.68974 39.2318C2.42306 39.1432 2.15516 39.0671 1.8827 38.9963C1.77205 38.9673 1.77205 38.9673 1.65916 38.9376C1.51744 38.9009 1.37541 38.8653 1.23303 38.831C0.744632 38.7031 0.429642 38.5483 0.0865881 38.1852C-0.090254 37.5685 0.0394727 36.9967 0.159404 36.3768C0.177754 36.2779 0.196104 36.179 0.215011 36.0771C0.251822 35.8796 0.289118 35.6823 0.326936 35.485C0.369269 35.2627 0.4096 35.0402 0.44839 34.8173C0.645724 33.7283 0.945899 32.6658 1.25164 31.6008C1.2836 31.4885 1.2836 31.4885 1.3162 31.374C2.3678 27.7089 2.3678 27.7089 3.67882 26.9639C4.28751 26.6862 4.96817 26.603 5.62511 26.4824C6.24682 26.3645 6.85549 26.2008 7.46522 26.0365C7.58612 26.0043 7.70701 25.9722 7.83157 25.939C8.7123 25.7006 9.58183 25.4307 10.4507 25.1555C10.5586 25.1214 10.6666 25.0873 10.7778 25.0521C11.4303 24.8436 12.0734 24.618 12.7145 24.3795C13.066 24.2498 13.419 24.1293 13.7759 24.0136C13.894 23.9748 14.0122 23.9359 14.1339 23.8959C14.4233 23.8193 14.6436 23.7919 14.9409 23.8107C15.2015 24.2377 15.2757 24.5879 15.2769 25.0738C15.2782 25.1423 15.2796 25.2109 15.2809 25.2815C15.2836 25.4296 15.2856 25.5778 15.2871 25.726C15.2895 25.9617 15.2938 26.1973 15.2985 26.433C15.3099 27.019 15.3187 27.6049 15.3267 28.1908C15.3334 28.6856 15.3417 29.1804 15.3519 29.6751C15.3561 29.9051 15.3582 30.1351 15.3602 30.3651C15.3814 31.6712 15.7004 32.7699 16.3062 33.9482C16.3751 34.0838 16.3751 34.0838 16.4454 34.2222C16.753 34.8143 17.0865 35.3851 17.4591 35.9421C17.5026 36.0075 17.5461 36.0729 17.591 36.1402C17.8023 36.4436 17.9667 36.6778 18.339 36.7941C18.5711 36.356 18.5679 35.941 18.5817 35.461C18.6632 33.5552 18.9965 31.8031 19.9061 30.0948C20.144 29.6319 20.2508 29.335 20.0866 28.8186C19.9335 28.5783 19.9335 28.5783 19.7407 28.3665C19.4462 27.9849 19.3104 27.7232 19.352 27.2464C19.4499 26.9083 19.6243 26.7384 19.8924 26.5002C19.9885 26.4696 20.0846 26.439 20.1837 26.4074C20.2548 26.2206 20.2548 26.2206 20.2807 26.0365C20.2183 26.0172 20.1558 25.998 20.0915 25.9782C19.673 25.7985 19.315 25.5509 18.9397 25.3004C18.7751 25.1914 18.6105 25.0825 18.4459 24.9736C18.3634 24.9188 18.2808 24.8639 18.1957 24.8074C17.964 24.6542 17.7312 24.5027 17.4978 24.352C17.4277 24.3065 17.3576 24.2611 17.2854 24.2143C17.1538 24.1291 17.0221 24.0441 16.8902 23.9595C16.3315 23.5957 15.9757 23.3417 15.8147 22.6979C15.7855 22.3555 15.7855 22.3555 15.7844 21.9965C15.7828 21.8778 15.7811 21.7591 15.7795 21.6368C15.8164 21.2911 15.8826 21.1144 16.106 20.8431C16.5277 20.756 16.8056 20.9381 17.1739 21.1213C17.4396 21.1862 17.4396 21.1862 17.6594 21.2141C17.3662 20.9284 17.0668 20.6577 16.7515 20.394C15.5471 19.3784 14.8113 18.1068 14.413 16.6235C14.3193 16.2758 14.3193 16.2758 14.0186 16.0729C13.9385 16.0557 13.8584 16.0384 13.7759 16.0207C13.4623 15.821 13.4206 15.5589 13.3361 15.2206C13.2537 14.8237 13.2169 14.4239 13.1812 14.021C13.1733 13.9319 13.1653 13.8427 13.1571 13.7508C12.9844 11.7042 12.9844 11.7042 13.2806 11.3468C13.4846 11.1983 13.4846 11.1983 13.6788 11.1983C13.7178 10.8356 13.6721 10.6086 13.4968 10.2941C12.9756 9.21028 13.0679 7.86391 13.0463 6.69228C13.0432 6.54853 13.0391 6.4048 13.0338 6.26111C13.0005 5.29443 13.1221 4.65018 13.7759 3.87196C13.8458 3.76639 13.9148 3.66024 13.9822 3.55317C14.305 3.13173 14.6025 2.958 15.1169 2.81126C15.7213 2.59797 15.9137 2.17663 16.216 1.65891C16.4492 1.28469 16.7019 1.05177 17.0769 0.811586C17.173 0.746553 17.2691 0.68152 17.3681 0.614516C19.0043 -0.202983 21.0302 -0.155523 22.7172 0.466306Z" fill="#5E4969"/>
</svg>
