<svg width="32" height="32" viewBox="0 0 32 32" fill="none" xmlns="http://www.w3.org/2000/svg">
<g clip-path="url(#clip0_198_286)">
<path d="M28.4159 7.89388C28.2772 7.57281 28.0786 7.28356 27.8307 7.03413L21.6575 0.834064C21.1289 0.301564 20.3987 -0.000873107 19.65 1.89338e-06H6.1663C4.60999 1.89338e-06 3.3438 1.26619 3.3438 2.8225V16.9038C3.32105 17.6411 4.23724 18.1136 4.82474 17.6677L8.18724 15.2756L11.5504 17.6678C11.8674 17.8974 12.3202 17.8973 12.6372 17.6678L16.0004 15.2756L19.3629 17.6677C19.6799 17.8967 20.1329 17.8966 20.4499 17.6677L23.8124 15.2756L27.1756 17.6678C27.7631 18.1146 28.6793 17.6404 28.6564 16.9038V9.0325C28.6563 8.64056 28.5721 8.24606 28.4159 7.89388ZM25.4619 7.3125H21.375V3.20794L25.4619 7.3125ZM23.2687 13.3611L19.9063 15.7532L16.5439 13.3611C16.2186 13.1297 15.7824 13.1296 15.457 13.3611L12.0938 15.7533L8.73055 13.3611C8.40524 13.1296 7.96899 13.1296 7.64367 13.3611L5.2188 15.0863V2.8225C5.2188 2.30006 5.64386 1.875 6.1663 1.875H19.5V8.25C19.5 8.76775 19.9198 9.1875 20.4375 9.1875H26.7813V15.0864L24.3555 13.3611C24.0302 13.1296 23.5941 13.1296 23.2687 13.3611Z" fill="black"/>
<path d="M28.2622 21.4523L24.3556 18.6736C24.0302 18.4421 23.594 18.4421 23.2687 18.6736L19.9063 21.0657L16.5439 18.6736C16.2186 18.4422 15.7824 18.4421 15.457 18.6736L12.0938 21.0658L8.73056 18.6736C8.40525 18.4421 7.969 18.4421 7.64369 18.6736L3.73781 21.4523C3.49375 21.6259 3.34369 21.9168 3.34375 22.2163V29.1775C3.34375 30.7338 4.60994 32 6.16625 32H25.8438C27.3946 32 28.6563 30.7383 28.6563 29.1875V22.2163C28.6563 21.9149 28.4828 21.6101 28.2622 21.4523ZM25.8438 30.125H6.16631C5.64388 30.125 5.21881 29.7 5.21881 29.1775V22.6998L8.18725 20.588L11.5504 22.9802C11.8674 23.2098 12.3202 23.2098 12.6373 22.9802L16.0004 20.588L19.3629 22.9801C19.6799 23.2091 20.1329 23.2091 20.4499 22.9801L23.8124 20.588L26.7814 22.6999V29.1875C26.7813 29.7045 26.3608 30.125 25.8438 30.125Z" fill="black"/>
</g>
<defs>
<clipPath id="clip0_198_286">
<rect width="32" height="32" fill="white"/>
</clipPath>
</defs>
</svg>
