<svg width="19" height="19" viewBox="0 0 19 19" fill="none" xmlns="http://www.w3.org/2000/svg">
<g clip-path="url(#clip0_20_478)">
<path d="M12.403 10.7146C12.403 12.3154 11.1008 13.6176 9.5 13.6176C7.89924 13.6176 6.59753 12.3154 6.59753 10.7146C6.59753 9.11387 7.89924 7.81166 9.5 7.81166C11.1008 7.81166 12.403 9.11436 12.403 10.7146ZM18.5 6.59255V14.8377C18.5 15.9369 17.6088 16.8281 16.5096 16.8281H2.49038C1.39119 16.8281 0.5 15.9369 0.5 14.8377V6.59255C0.5 5.49337 1.39119 4.60217 2.49038 4.60217H4.93855V3.9135C4.93855 2.95165 5.71778 2.17192 6.68013 2.17192H12.3199C13.2822 2.17192 14.0615 2.95165 14.0615 3.9135V4.60168H16.5096C17.6088 4.60217 18.5 5.49337 18.5 6.59255ZM13.8958 10.7146C13.8958 8.29084 11.9238 6.31888 9.5 6.31888C7.07671 6.31888 5.10474 8.29084 5.10474 10.7146C5.10474 13.1384 7.07671 15.1104 9.5 15.1104C11.9238 15.1104 13.8958 13.1384 13.8958 10.7146Z" fill="#C50035"/>
</g>
<defs>
<clipPath id="clip0_20_478">
<rect width="18" height="18" fill="white" transform="translate(0.5 0.5)"/>
</clipPath>
</defs>
</svg>
