<svg width="18" height="18" viewBox="0 0 18 18" fill="none" xmlns="http://www.w3.org/2000/svg">
<path d="M14.4844 18H3.51562C1.57707 18 0 16.4229 0 14.4844V3.51562C0 1.57711 1.57707 0 3.51562 0H10.337C10.7254 0 11.0402 0.314789 11.0402 0.703125C11.0402 1.09146 10.7254 1.40625 10.337 1.40625H3.51562C2.35252 1.40625 1.40625 2.35252 1.40625 3.51562V14.4844C1.40625 15.6475 2.35252 16.5938 3.51562 16.5938H14.4844C15.6475 16.5938 16.5938 15.6475 16.5938 14.4844V7.66297C16.5938 7.27464 16.9085 6.95985 17.2969 6.95985C17.6852 6.95985 18 7.27464 18 7.66297V14.4844C18 16.4229 16.4229 18 14.4844 18Z" fill="#C50035"/>
<path d="M16.885 1.11502C15.7884 0.0184236 14.0042 0.0184236 12.9075 1.11502L5.25367 8.76888C3.96456 10.058 3.40839 11.8948 3.76593 13.6825C3.82158 13.9608 4.03913 14.1784 4.31746 14.2341C6.09654 14.5898 7.93588 14.0416 9.23115 12.7463L16.885 5.09245C17.9816 3.9959 17.9816 2.21161 16.885 1.11502ZM15.8907 4.09813L8.23675 11.752C7.39722 12.5916 6.24459 13.0118 5.07793 12.9221C4.9881 11.7557 5.4084 10.6028 6.24803 9.76324L12.2044 3.80686L12.7016 4.30408C12.9762 4.57865 13.4214 4.57872 13.696 4.30408C13.9706 4.02951 13.9706 3.58429 13.696 3.30972L13.1988 2.8125L13.9019 2.10938C14.4503 1.56108 15.3424 1.56108 15.8907 2.10938C16.4389 2.65767 16.4389 3.54983 15.8907 4.09813Z" fill="#C50035"/>
</svg>
