<svg width="20" height="20" viewBox="0 0 20 20" fill="none" xmlns="http://www.w3.org/2000/svg">
<g clip-path="url(#clip0_17_323)">
<path d="M7.31656 9.87176C7.63082 10.3265 7.53687 9.94758 7.53687 19.0123C7.53687 19.8234 8.46234 20.2877 9.11461 19.8025C11.9018 17.7011 12.4587 17.5191 12.4587 16.5361C12.4587 9.93051 12.3817 10.302 12.679 9.87176L17.2052 3.7109H2.79047L7.31656 9.87176Z" fill="#C50035"/>
<path d="M18.9149 0.502344C18.7532 0.192578 18.436 0 18.0868 0H1.90883C1.15472 0 0.711014 0.850664 1.14359 1.46875C1.14715 1.47469 1.09449 1.40262 1.92953 2.53906H18.0661C18.7777 1.57059 19.2533 1.15215 18.9149 0.502344Z" fill="#C50035"/>
</g>
<defs>
<clipPath id="clip0_17_323">
<rect width="20" height="20" fill="white"/>
</clipPath>
</defs>
</svg>
