<svg width="247" height="35" viewBox="0 0 247 35" fill="none" xmlns="http://www.w3.org/2000/svg">
<path d="M87.2373 2.71134C87.0897 1.62683 87.5325 1.28176 88.5658 1.72542C88.615 2.56345 88.4674 3.54936 87.6309 3.94373C86.4501 3.94373 85.2692 3.64796 84.1375 4.09162C84.1375 4.68317 84.1375 5.27471 84.1375 5.91556C85.466 5.81697 87.4833 5.96485 87.5325 7.6902C87.3849 9.66204 88.2706 12.2254 86.7453 13.8029C84.7771 14.4437 82.6122 13.9508 80.5457 14.0987C80.6441 12.7677 80.2012 11.2395 81.0869 10.1057C81.3329 10.3522 81.9234 10.7465 82.1694 10.993C81.9234 11.2395 81.4313 11.6832 81.1853 11.9296C82.071 12.1761 83.7439 12.3733 83.6455 10.9437C83.5963 10.0071 84.0883 8.23246 82.809 8.03528C80.4965 7.93668 78.1839 7.93668 75.8714 8.13387L76.0682 8.57753C76.9538 9.46485 75.4777 9.46485 75.0349 9.31697C75.0841 8.18316 75.0841 7.09866 75.0841 5.96485C76.8062 5.96485 78.4791 5.96485 80.2012 5.96485C80.2012 4.97894 80.2012 3.99303 80.152 3.00711C82.2678 1.18317 84.8756 2.61275 87.2373 2.71134Z" fill="white"/>
<path d="M51.1221 6.65497C53.1394 5.27469 55.5504 6.06342 57.7153 6.35919C58.3058 6.01412 59.8311 5.57046 59.5358 6.75356C58.8962 8.6268 56.5837 7.59159 55.1568 7.83807C55.1568 8.52821 55.1568 9.26765 55.1568 9.95779C57.1741 10.0071 59.1914 9.85919 61.2088 10.0071C62.5372 10.1057 63.6197 11.3874 63.6197 12.6691C63.7181 16.7606 63.6197 20.8522 63.6689 24.9437C63.6197 26.1268 63.7673 27.5071 62.8817 28.3944C62.1436 29.2817 60.8643 29.1338 59.8311 29.1831C55.452 29.1338 51.0237 29.2324 46.6445 29.1338C45.07 29.1831 43.6431 27.8522 43.7415 26.2747C43.6923 24.0071 43.6923 21.7395 43.7415 19.4226C43.6431 18.1409 44.8732 17.3522 45.9065 16.9578C44.8732 16.662 43.6431 16.1198 43.7415 14.8381C43.7907 13.2606 43.1019 10.7958 45.0208 10.0564C46.9889 9.61272 49.0555 9.95779 51.0729 9.85919C51.1221 8.92257 51.1221 7.78877 51.1221 6.65497ZM48.1698 14.7888C49.3016 15.0845 51.1713 15.2817 51.2205 13.655C50.7285 13.8029 50.1872 13.9507 49.6952 14.0986C49.7444 13.8522 49.8428 13.3592 49.892 13.1127C51.6141 12.8169 53.3855 13.0141 55.1568 12.9648C55.0584 14.0986 55.452 15.4789 54.4679 16.3169C53.3362 17.3029 51.7125 16.8099 50.3349 17.0071C48.9571 16.9085 47.7762 18.1409 47.8746 19.4719C47.8254 21.7395 47.8254 24.0071 47.8746 26.2747C47.8254 27.1127 48.6618 27.7043 49.4 27.655C52.1554 27.7536 54.9108 27.7043 57.6169 27.7043C58.4534 27.7536 59.6343 27.3592 59.5851 26.324C59.6835 22.3804 59.5851 18.4367 59.6343 14.493C59.6835 13.4578 59.339 11.8803 58.0106 11.9789C55.0092 11.9296 52.057 11.9296 49.0554 11.9789C47.6777 12.0282 47.4318 14 48.1698 14.7888Z" fill="white"/>
<path d="M156.22 7.39432C155.826 6.60559 156.269 5.86615 157.155 5.86615C158.582 5.91545 158.631 7.93657 157.696 8.67601C156.072 10.1549 153.858 8.42953 151.989 9.02108C151.792 10.5492 152.53 12.8661 150.759 13.6549C148.052 13.9507 145.297 13.7042 142.542 13.8028C142.788 12.5211 141.853 10.3028 143.526 9.80981C144.707 9.80981 144.116 10.7464 143.87 11.4366C145.1 11.8309 146.625 12.1267 147.806 11.5352C148.298 10.0563 147.905 8.38023 148.003 6.85207C150.709 5.61967 153.416 7.49291 156.22 7.39432Z" fill="white"/>
<path d="M199.027 7.39445C198.387 6.16206 200.011 5.37333 200.798 6.26065C201.881 7.69023 200.109 9.76065 198.486 9.26769C197.305 9.2184 196.026 8.52825 194.894 9.1691C194.353 10.3522 195.041 11.9297 194.254 13.0635C193.762 13.8029 192.827 13.7536 192.04 13.8029C189.777 13.8029 187.513 13.8029 185.25 13.8029C185.447 12.5705 184.807 10.9437 185.742 10.0071C186.086 10.0071 186.775 9.95783 187.12 9.95783C186.923 10.4508 186.726 10.9437 186.579 11.4367C187.907 11.979 189.432 11.979 190.761 11.5353C190.712 9.95783 190.712 8.38037 190.761 6.8522C193.565 5.6198 196.222 7.49304 199.027 7.39445Z" fill="white"/>
<path d="M10.3325 7.09864C19.878 7.09864 29.4234 7.09864 38.9688 7.09864C40.4449 7.00005 42.1178 7.93667 42.167 9.51413C42.3146 13.162 42.2162 16.8099 42.2162 20.4578C42.3146 21.986 41.5274 23.8592 39.9037 24.2043C37.9355 24.4508 35.9674 24.3522 33.9993 24.2536C32.6708 24.2536 31.4407 23.1198 31.4899 21.7888C31.3915 20.0141 31.3423 18.2395 31.5391 16.5141C31.6867 15.331 32.9168 14.7395 34.0485 14.7888C35.2294 14.7888 37.0499 14.493 37.0007 16.1691C36.6563 16.1691 35.9182 16.1198 35.5738 16.1198C35.2786 17.7958 35.2786 19.5212 35.4754 21.1972C36.115 22.2817 38.1816 22.2817 38.28 20.8522C38.4276 17.6479 38.3292 14.4437 38.3292 11.2888C38.4768 10.1057 37.5419 8.97188 36.361 9.07047C33.1628 8.97188 30.0138 9.07047 26.8156 9.02117C26.7664 9.9085 26.7664 10.7958 26.7172 11.6831C27.7505 12.0282 29.1282 12.3733 29.325 13.7043C29.6202 16.0705 29.3742 18.486 29.4234 20.8522C29.325 23.0212 29.6694 25.2395 29.1282 27.3592C28.3901 29.6761 25.5363 29.3803 23.6666 28.986C22.5841 28.6409 22.8302 27.2113 23.519 26.6198C23.765 26.9155 24.2078 27.5564 24.4047 27.9015C24.8475 27.3099 25.3887 26.6691 25.3395 25.8803C25.3395 22.5282 25.3887 19.1761 25.3395 15.824C25.3887 14.6409 24.3063 13.8029 23.2238 13.8522C20.8128 13.7536 18.3527 13.8029 15.8925 13.8522C14.9576 13.8029 13.7768 14.2958 13.6784 15.3803C13.4816 17.3522 13.6292 19.324 13.58 21.2958C13.6292 23.5141 13.3339 25.7324 13.9244 27.8522C14.2196 27.6057 14.81 27.1127 15.1053 26.8169C15.4005 27.4578 16.0401 28.2465 15.2037 28.7395C13.2847 29.4789 10.2833 29.4789 9.49609 27.1127V13.8029C9.88972 12.8169 10.7262 11.9789 11.8578 11.8803C15.1545 11.5846 18.5003 11.9296 21.7969 11.7324C23.1746 11.7817 22.9286 9.95779 22.5841 9.07047C21.2557 8.77469 19.9272 8.92258 18.5495 8.87329C16.1877 8.92258 13.7768 8.7254 11.415 9.07047C11.8578 9.80991 11.8578 10.4508 11.3166 11.0423C9.93892 10.3029 10.431 8.52822 10.3325 7.09864Z" fill="white"/>
<path d="M99.0952 10.5494C99.4396 9.90851 100.276 10.155 100.817 10.3522C100.571 10.8451 100.325 11.3381 100.128 11.7817C100.768 11.9296 101.457 12.0282 102.146 12.0775C110.756 12.0775 119.416 12.0282 128.027 12.0775C129.404 11.9789 130.979 13.0141 130.93 14.493C130.979 18.4367 130.979 22.3803 130.93 26.324C130.979 27.7043 129.896 29.0846 128.519 29.1832C126.551 29.2817 124.582 29.2817 122.614 29.1832C121.187 29.1339 120.154 27.655 120.203 26.2747C120.154 24.5986 120.105 22.9719 120.253 21.2958C120.892 19.6198 122.959 19.7677 124.435 19.817C125.517 19.5705 125.911 20.6057 125.468 21.4437C125.173 21.2958 124.632 20.9508 124.336 20.8029C124.09 22.5775 124.09 24.4015 124.238 26.2254C124.484 27.7536 127.289 27.4085 127.043 25.7817C127.092 22.4296 127.043 19.0775 127.043 15.7254C127.092 14.986 126.747 14.0001 125.862 14.0001C123.303 13.8522 120.745 14.0001 118.186 13.9508C118.186 18.0423 118.235 22.1832 118.186 26.2747C118.334 27.655 117.3 29.1832 115.824 29.1339C114.004 29.2325 112.183 29.2325 110.412 29.1339C109.575 29.1832 109.083 28.4437 108.641 27.8522C108.149 28.493 107.607 29.2325 106.722 29.1339C104.606 29.1832 102.49 29.2325 100.325 29.1339C99.292 29.1339 98.2095 28.3451 98.2095 27.2113C98.1603 25.1902 98.1603 23.2184 98.2095 21.1972C98.1603 20.0141 99.0952 18.8803 100.325 18.831C102.293 18.7325 104.261 18.7325 106.23 18.831C107.361 18.7817 108.444 19.6198 108.591 20.7536C108.788 22.1832 108.641 23.6127 108.641 25.0423C109.674 25.1902 109.526 26.0775 109.034 26.7677C110.412 27.3099 111.937 27.3099 113.364 27.0141C114.102 26.6198 113.955 25.5846 114.004 24.8451C113.955 21.6409 114.053 18.4367 113.955 15.2817C114.004 14.493 113.315 13.9015 112.577 13.9508C108.001 13.8522 103.474 13.9508 98.8984 13.9015C98.9476 12.9155 98.7999 11.7325 99.0952 10.5494ZM102.736 21.1479C102.638 21.2465 102.441 21.4437 102.343 21.5423C102.195 23.2677 102.195 24.993 102.343 26.7184C102.687 27.6057 103.917 27.4578 104.508 26.9155C104.704 25.0916 104.754 23.2184 104.458 21.4437C103.966 21.0001 103.277 20.7536 102.736 21.1479Z" fill="white"/>
<path d="M88.5657 12.0283C90.5831 12.0776 92.6496 11.9297 94.6669 12.0776C95.897 12.1761 96.8319 13.31 96.7827 14.5423C96.8319 18.486 96.8319 22.4297 96.7827 26.3733C96.8811 27.9508 95.4542 29.2818 93.9289 29.2325C91.8131 29.3311 89.6974 29.2818 87.5817 29.2325C86.0072 29.2818 84.6295 27.9015 84.7279 26.324C84.4819 24.7959 85.1707 22.9226 84.1866 21.5916C83.1042 21.1973 80.8408 20.9508 80.9392 22.6761C80.9884 24.6973 80.5456 26.817 81.2837 28.7395L81.4805 27.5071C82.5629 27.8029 82.2677 29.3804 81.1852 29.2325C79.7091 29.3311 78.2331 29.2325 76.757 29.2325C76.8062 26.7184 76.7078 24.2043 76.8062 21.6902C76.757 20.3099 78.0362 19.1269 79.3647 19.2254C81.6281 19.1761 83.8914 19.1761 86.1548 19.2254C87.6801 19.1761 88.9593 20.655 88.7625 22.1339C88.9593 23.7114 88.3197 25.5846 89.2054 26.9649C90.337 27.3592 92.748 27.655 92.6988 25.8311C92.748 22.479 92.6988 19.1269 92.748 15.7747C92.6988 15.1339 92.8956 14.2959 92.1084 14.0494C91.4195 13.8029 90.6323 14.0001 89.9434 14.0001C89.9926 14.3945 90.1402 15.1339 90.1894 15.479C87.8769 16.1691 88.7133 13.3592 88.5657 12.0283Z" fill="white"/>
<path d="M154.4 11.8311C156.368 11.8804 158.336 11.7326 160.304 11.8804C161.632 11.979 162.469 13.2607 162.37 14.5424C162.37 18.4861 162.42 22.4297 162.37 26.3734C162.37 27.9016 160.944 29.1833 159.418 29.134C157.45 29.1833 155.433 29.1833 153.465 29.134C152.284 29.1833 151.152 28.4931 150.709 27.3593C150.07 25.4861 150.955 23.3664 150.119 21.5917C149.184 21.0988 147.364 20.803 146.773 21.8875C146.379 24.0565 146.675 26.2748 146.625 28.4438C147.117 27.8523 147.757 27.1128 148.052 28.2466C147.806 28.7889 147.364 29.2326 146.724 29.134C145.346 29.1833 143.919 29.134 142.542 29.134C142.591 26.5706 142.443 23.9579 142.591 21.3945C142.64 20.2114 143.722 19.2255 144.903 19.1762C147.216 19.0776 149.479 19.1269 151.792 19.1269C152.874 19.0776 153.908 19.6692 154.4 20.6058C155.088 22.5776 154.154 24.8945 154.941 26.8171C155.974 27.3593 158.336 27.5565 158.385 25.9297C158.434 22.3311 158.434 18.6833 158.385 15.0847C158.483 13.5565 156.515 13.8523 155.531 14.0495C155.679 14.5917 155.777 15.134 155.876 15.6762C153.711 15.5776 154.498 13.1621 154.4 11.8311Z" fill="white"/>
<path d="M165.815 11.8802C170.784 11.7323 175.803 11.8309 180.773 11.8309C182.298 11.7816 183.774 13.014 183.774 14.5915C183.823 18.2394 183.823 21.8873 183.774 25.5352C183.872 27.2605 182.544 29.0352 180.773 29.0845C176.836 29.183 172.9 29.0845 168.915 29.1337C167.537 29.1337 165.962 29.2323 164.929 28.1478C163.797 27.1126 163.896 25.5352 163.896 24.1056C163.945 20.7535 163.847 17.4014 163.945 14.0492C163.945 13.014 164.732 12.0281 165.815 11.8802ZM169.505 13.8521C168.324 13.9999 167.881 15.3309 167.93 16.3661C167.93 19.4225 167.881 22.4295 167.93 25.4859C167.783 26.5211 168.816 27.1619 169.751 27.1126C172.506 27.1619 175.262 27.1619 178.017 27.1126C178.903 27.1619 179.788 26.4718 179.69 25.5352C179.69 22.183 179.739 18.8309 179.69 15.4788C179.739 14.5422 178.854 13.8028 177.968 13.8521C175.163 13.8028 172.31 13.7535 169.505 13.8521Z" fill="white"/>
<path d="M197.206 11.8311C199.174 11.8804 201.093 11.7326 203.062 11.8804C204.193 11.9297 205.177 12.965 205.177 14.0988C205.325 17.5988 205.128 21.0988 205.276 24.5988C205.719 25.3382 206.211 26.0283 205.522 26.9157C207.293 27.2607 209.163 27.31 210.934 27.0635C211.771 26.5706 211.574 25.4368 211.623 24.6481C211.574 21.2959 211.721 17.9438 211.524 14.641C211.082 13.5072 209.556 14.0495 208.622 14.0988C209.015 14.5424 209.261 15.0354 209.31 15.6269C208.671 16.0213 208.179 15.9227 207.785 15.2819C207.539 14.1973 207.687 13.0142 207.637 11.8804C209.556 11.9297 211.426 11.7819 213.345 11.979C214.624 12.1269 215.756 13.2607 215.658 14.5917C215.658 18.5847 215.707 22.5283 215.658 26.5213C215.608 28.2959 213.739 29.3804 212.115 29.2326C209.458 29.0847 206.703 29.5776 204.095 28.8875C201.93 29.4297 199.667 29.2326 197.502 29.1833C196.616 29.2326 196.173 28.4931 195.681 27.9016C195.238 28.4931 194.746 29.1833 193.959 29.1833C191.794 29.2819 189.678 29.2819 187.513 29.1833C186.529 29.1833 185.398 28.5424 185.348 27.4579C185.25 25.3382 185.25 23.1692 185.348 21.0495C185.348 19.8664 186.332 18.8311 187.563 18.8311C189.531 18.7326 191.548 18.7326 193.516 18.8311C194.697 18.8311 195.73 19.8664 195.779 21.0495C195.878 22.479 195.829 23.8593 195.829 25.2889C196.075 25.3382 196.567 25.4368 196.862 25.4861C196.714 25.7819 196.37 26.4227 196.222 26.7678C197.354 27.6058 198.879 27.31 200.159 27.2607C201.143 27.1621 201.192 25.979 201.192 25.2396C201.143 21.8875 201.241 18.5354 201.143 15.1833C201.143 13.7044 199.322 13.7537 198.338 14.1973C198.436 14.4931 198.584 15.0354 198.682 15.3311C196.518 15.6762 197.354 13.0635 197.206 11.8311ZM189.531 21.0495C189.186 22.6762 189.383 24.3523 189.383 25.979C189.186 26.9157 190.367 27.4086 191.105 27.0142C191.892 26.7185 191.597 25.6833 191.696 25.0424C191.696 23.81 191.745 22.6269 191.597 21.3945C191.45 20.5072 190.121 20.4579 189.531 21.0495Z" fill="white"/>
<path d="M218.61 12.0283C219.594 11.7326 220.627 11.8311 221.611 11.8311C225.843 11.8804 230.123 11.7818 234.355 11.8804C235.978 11.9297 237.258 13.4579 237.11 15.0354C237.11 18.6833 237.159 22.3311 237.061 25.979C237.012 27.6058 235.585 29.0847 233.961 29.0847C230.173 29.1833 226.335 29.0847 222.546 29.134C221.119 29.0847 219.495 29.3311 218.364 28.2466C217.429 27.4579 217.183 26.2255 217.183 25.0424C217.183 21.5424 217.183 18.0424 217.183 14.5424C217.183 13.5072 217.576 12.3734 218.61 12.0283ZM222.694 13.9016C221.611 14.0987 221.218 15.3804 221.267 16.3664C221.316 19.5706 221.168 22.7255 221.316 25.9297C221.414 26.9649 222.595 27.1621 223.432 27.1128C225.99 27.1128 228.598 27.1621 231.206 27.1128C231.944 27.1128 232.928 26.8171 232.977 25.9297C233.125 22.5776 233.026 19.2255 233.026 15.8734C233.174 14.7889 232.337 13.6551 231.157 13.803C228.352 13.8523 225.498 13.7044 222.694 13.9016Z" fill="white"/>
<path d="M193.713 30.3663C194.353 29.9719 195.041 29.5776 195.681 29.1832C196.37 29.5776 197.059 29.9719 197.797 30.3663C197.797 31.155 197.846 31.9438 197.846 32.7325C198.141 32.5846 198.732 32.2395 199.027 32.0916C199.027 32.486 199.027 33.2747 199.027 33.6691H192.384C192.384 33.2747 192.335 32.486 192.335 32.1409C192.778 32.3381 193.221 32.486 193.664 32.6832C193.664 31.8945 193.713 31.1057 193.713 30.3663Z" fill="white"/>
</svg>
