<svg width="502" height="71" viewBox="0 0 502 71" fill="none" xmlns="http://www.w3.org/2000/svg">
<path d="M177.3 5.50011C177 3.30011 177.9 2.60011 180 3.50011C180.1 5.20011 179.8 7.20011 178.1 8.00011C175.7 8.00011 173.3 7.40011 171 8.30011C171 9.50011 171 10.7001 171 12.0001C173.7 11.8001 177.8 12.1001 177.9 15.6001C177.6 19.6001 179.4 24.8001 176.3 28.0001C172.3 29.3001 167.9 28.3001 163.7 28.6001C163.9 25.9001 163 22.8001 164.8 20.5001C165.3 21.0001 166.5 21.8001 167 22.3001C166.5 22.8001 165.5 23.7001 165 24.2001C166.8 24.7001 170.2 25.1001 170 22.2001C169.9 20.3001 170.9 16.7001 168.3 16.3001C163.6 16.1001 158.9 16.1001 154.2 16.5001L154.6 17.4001C156.4 19.2001 153.4 19.2001 152.5 18.9001C152.6 16.6001 152.6 14.4001 152.6 12.1001C156.1 12.1001 159.5 12.1001 163 12.1001C163 10.1001 163 8.10011 162.9 6.10011C167.2 2.40011 172.5 5.30011 177.3 5.50011Z" fill="white"/>
<path d="M103.9 13.5001C108 10.7001 112.9 12.3001 117.3 12.9001C118.5 12.2001 121.6 11.3001 121 13.7001C119.7 17.5001 115 15.4001 112.1 15.9001C112.1 17.3001 112.1 18.8001 112.1 20.2001C116.2 20.3001 120.3 20.0001 124.4 20.3001C127.1 20.5001 129.3 23.1001 129.3 25.7001C129.5 34.0001 129.3 42.3001 129.4 50.6001C129.3 53.0001 129.6 55.8001 127.8 57.6001C126.3 59.4001 123.7 59.1001 121.6 59.2001C112.7 59.1001 103.7 59.3001 94.7998 59.1001C91.5998 59.2001 88.6998 56.5001 88.8998 53.3001C88.7998 48.7001 88.7998 44.1001 88.8998 39.4001C88.6998 36.8001 91.1998 35.2001 93.2998 34.4001C91.1998 33.8001 88.6998 32.7001 88.8998 30.1001C88.9998 26.9001 87.5998 21.9001 91.4998 20.4001C95.4998 19.5001 99.6998 20.2001 103.8 20.0001C103.9 18.1001 103.9 15.8001 103.9 13.5001ZM97.8998 30.0001C100.2 30.6001 104 31.0001 104.1 27.7001C103.1 28.0001 102 28.3001 101 28.6001C101.1 28.1001 101.3 27.1001 101.4 26.6001C104.9 26.0001 108.5 26.4001 112.1 26.3001C111.9 28.6001 112.7 31.4001 110.7 33.1001C108.4 35.1001 105.1 34.1001 102.3 34.5001C99.4998 34.3001 97.0998 36.8001 97.2998 39.5001C97.1998 44.1001 97.1998 48.7001 97.2998 53.3001C97.1998 55.0001 98.8998 56.2001 100.4 56.1001C106 56.3001 111.6 56.2001 117.1 56.2001C118.8 56.3001 121.2 55.5002 121.1 53.4002C121.3 45.4002 121.1 37.4001 121.2 29.4001C121.3 27.3001 120.6 24.1001 117.9 24.3001C111.8 24.2001 105.8 24.2001 99.6997 24.3001C96.8997 24.4001 96.3998 28.4001 97.8998 30.0001Z" fill="white"/>
<path d="M317.5 14.9999C316.7 13.3999 317.6 11.8999 319.4 11.8999C322.3 11.9999 322.4 16.0999 320.5 17.5999C317.2 20.5999 312.7 17.0999 308.9 18.2999C308.5 21.3999 310 26.0999 306.4 27.6999C300.9 28.2999 295.3 27.7999 289.7 27.9999C290.2 25.3999 288.3 20.8999 291.7 19.8999C294.1 19.8999 292.9 21.7999 292.4 23.1999C294.9 23.9999 298 24.5999 300.4 23.3999C301.4 20.3999 300.6 16.9999 300.8 13.8999C306.3 11.3999 311.8 15.1999 317.5 14.9999Z" fill="white"/>
<path d="M404.5 15.0002C403.2 12.5002 406.5 10.9002 408.1 12.7002C410.3 15.6002 406.7 19.8002 403.4 18.8002C401 18.7002 398.4 17.3002 396.1 18.6002C395 21.0002 396.4 24.2002 394.8 26.5002C393.8 28.0002 391.9 27.9002 390.3 28.0002C385.7 28.0002 381.1 28.0002 376.5 28.0002C376.9 25.5002 375.6 22.2002 377.5 20.3002C378.2 20.3002 379.6 20.2002 380.3 20.2002C379.9 21.2002 379.5 22.2002 379.2 23.2002C381.9 24.3002 385 24.3002 387.7 23.4002C387.6 20.2002 387.6 17.0002 387.7 13.9002C393.4 11.4002 398.8 15.2002 404.5 15.0002Z" fill="white"/>
<path d="M20.9998 14.4001C40.3998 14.4001 59.7998 14.4001 79.1998 14.4001C82.1998 14.2001 85.5998 16.1001 85.6998 19.3001C85.9998 26.7001 85.7998 34.1001 85.7998 41.5001C85.9998 44.6001 84.3998 48.4001 81.0998 49.1001C77.0998 49.6001 73.0998 49.4001 69.0998 49.2001C66.3998 49.2001 63.8998 46.9001 63.9998 44.2001C63.7998 40.6001 63.6998 37.0001 64.0998 33.5001C64.3998 31.1001 66.8998 29.9001 69.1998 30.0001C71.5998 30.0001 75.2998 29.4001 75.1998 32.8001C74.4998 32.8001 72.9998 32.7001 72.2998 32.7001C71.6998 36.1001 71.6998 39.6001 72.0998 43.0001C73.3998 45.2001 77.5998 45.2001 77.7998 42.3001C78.0998 35.8001 77.8998 29.3001 77.8998 22.9001C78.1998 20.5001 76.2998 18.2001 73.8998 18.4001C67.3998 18.2001 60.9998 18.4001 54.4998 18.3001C54.3998 20.1001 54.3998 21.9001 54.2998 23.7001C56.3998 24.4001 59.1998 25.1001 59.5998 27.8001C60.1998 32.6001 59.6998 37.5001 59.7998 42.3001C59.5998 46.7001 60.2998 51.2001 59.1998 55.5001C57.6998 60.2001 51.8998 59.6001 48.0998 58.8001C45.8998 58.1001 46.3998 55.2001 47.7998 54.0001C48.2998 54.6001 49.1998 55.9001 49.5998 56.6001C50.4998 55.4001 51.5998 54.1001 51.4998 52.5001C51.4998 45.7001 51.5998 38.9001 51.4998 32.1001C51.5998 29.7001 49.3998 28.0001 47.1998 28.1001C42.2998 27.9001 37.2998 28.0001 32.2998 28.1001C30.3998 28.0001 27.9998 29.0001 27.7998 31.2001C27.3998 35.2001 27.6998 39.2001 27.5998 43.2001C27.6998 47.7001 27.0998 52.2001 28.2998 56.5001C28.8998 56.0001 30.0998 55.0001 30.6998 54.4001C31.2998 55.7001 32.5998 57.3001 30.8998 58.3001C26.9998 59.8001 20.8998 59.8001 19.2998 55.0001V28.0001C20.0998 26.0001 21.7998 24.3001 24.0998 24.1001C30.7998 23.5001 37.5998 24.2001 44.2998 23.8001C47.0998 23.9001 46.5998 20.2001 45.8998 18.4001C43.1998 17.8001 40.4998 18.1001 37.6998 18.0001C32.8998 18.1001 27.9998 17.7001 23.1998 18.4001C24.0998 19.9001 24.0998 21.2001 22.9998 22.4001C20.1998 20.9001 21.1998 17.3001 20.9998 14.4001Z" fill="white"/>
<path d="M201.4 21.4001C202.1 20.1001 203.8 20.6001 204.9 21.0001C204.4 22.0001 203.9 23.0001 203.5 23.9001C204.8 24.2001 206.2 24.4001 207.6 24.5001C225.1 24.5001 242.7 24.4001 260.2 24.5001C263 24.3001 266.2 26.4001 266.1 29.4001C266.2 37.4001 266.2 45.4001 266.1 53.4001C266.2 56.2001 264 59.0001 261.2 59.2001C257.2 59.4001 253.2 59.4001 249.2 59.2001C246.3 59.1001 244.2 56.1001 244.3 53.3001C244.2 49.9001 244.1 46.6001 244.4 43.2001C245.7 39.8001 249.9 40.1001 252.9 40.2001C255.1 39.7001 255.9 41.8001 255 43.5001C254.4 43.2001 253.3 42.5001 252.7 42.2001C252.2 45.8001 252.2 49.5001 252.5 53.2001C253 56.3001 258.7 55.6001 258.2 52.3001C258.3 45.5001 258.2 38.7001 258.2 31.9001C258.3 30.4001 257.6 28.4001 255.8 28.4001C250.6 28.1001 245.4 28.4001 240.2 28.3001C240.2 36.6001 240.3 45.0001 240.2 53.3001C240.5 56.1001 238.4 59.2001 235.4 59.1001C231.7 59.3001 228 59.3001 224.4 59.1001C222.7 59.2001 221.7 57.7001 220.8 56.5001C219.8 57.8001 218.7 59.3001 216.9 59.1001C212.6 59.2001 208.3 59.3001 203.9 59.1001C201.8 59.1001 199.6 57.5001 199.6 55.2001C199.5 51.1001 199.5 47.1001 199.6 43.0001C199.5 40.6001 201.4 38.3001 203.9 38.2001C207.9 38.0001 211.9 38.0001 215.9 38.2001C218.2 38.1001 220.4 39.8001 220.7 42.1001C221.1 45.0001 220.8 47.9001 220.8 50.8001C222.9 51.1001 222.6 52.9001 221.6 54.3001C224.4 55.4001 227.5 55.4001 230.4 54.8001C231.9 54.0001 231.6 51.9001 231.7 50.4001C231.6 43.9001 231.8 37.4001 231.6 31.0001C231.7 29.4001 230.3 28.2001 228.8 28.3001C219.5 28.1001 210.3 28.3001 201 28.2001C201.1 26.2001 200.8 23.8001 201.4 21.4001ZM208.8 42.9001C208.6 43.1001 208.2 43.5001 208 43.7001C207.7 47.2001 207.7 50.7001 208 54.2001C208.7 56.0001 211.2 55.7001 212.4 54.6001C212.8 50.9001 212.9 47.1001 212.3 43.5001C211.3 42.6001 209.9 42.1001 208.8 42.9001Z" fill="white"/>
<path d="M180 24.4002C184.1 24.5002 188.3 24.2002 192.4 24.5002C194.9 24.7002 196.8 27.0002 196.7 29.5002C196.8 37.5002 196.8 45.5002 196.7 53.5002C196.9 56.7002 194 59.4002 190.9 59.3002C186.6 59.5002 182.3 59.4002 178 59.3002C174.8 59.4002 172 56.6002 172.2 53.4002C171.7 50.3002 173.1 46.5002 171.1 43.8002C168.9 43.0002 164.3 42.5002 164.5 46.0002C164.6 50.1002 163.7 54.4002 165.2 58.3002L165.6 55.8002C167.8 56.4002 167.2 59.6002 165 59.3002C162 59.5002 159 59.3002 156 59.3002C156.1 54.2002 155.9 49.1002 156.1 44.0002C156 41.2002 158.6 38.8002 161.3 39.0002C165.9 38.9002 170.5 38.9002 175.1 39.0002C178.2 38.9002 180.8 41.9002 180.4 44.9002C180.8 48.1002 179.5 51.9002 181.3 54.7002C183.6 55.5002 188.5 56.1002 188.4 52.4002C188.5 45.6002 188.4 38.8002 188.5 32.0002C188.4 30.7002 188.8 29.0002 187.2 28.5002C185.8 28.0002 184.2 28.4002 182.8 28.4002C182.9 29.2002 183.2 30.7002 183.3 31.4002C178.6 32.8002 180.3 27.1002 180 24.4002Z" fill="white"/>
<path d="M313.8 24.0003C317.8 24.1003 321.8 23.8003 325.8 24.1003C328.5 24.3003 330.2 26.9003 330 29.5003C330 37.5003 330.1 45.5003 330 53.5003C330 56.6003 327.1 59.2003 324 59.1003C320 59.2003 315.9 59.2003 311.9 59.1003C309.5 59.2003 307.2 57.8003 306.3 55.5003C305 51.7003 306.8 47.4003 305.1 43.8003C303.2 42.8003 299.5 42.2003 298.3 44.4003C297.5 48.8003 298.1 53.3003 298 57.7003C299 56.5003 300.3 55.0003 300.9 57.3003C300.4 58.4003 299.5 59.3003 298.2 59.1003C295.4 59.2003 292.5 59.1003 289.7 59.1003C289.8 53.9003 289.5 48.6003 289.8 43.4003C289.9 41.0003 292.1 39.0003 294.5 38.9003C299.2 38.7003 303.8 38.8003 308.5 38.8003C310.7 38.7003 312.8 39.9003 313.8 41.8003C315.2 45.8003 313.3 50.5003 314.9 54.4003C317 55.5003 321.8 55.9003 321.9 52.6003C322 45.3003 322 37.9003 321.9 30.6003C322.1 27.5003 318.1 28.1003 316.1 28.5003C316.4 29.6003 316.6 30.7003 316.8 31.8003C312.4 31.6003 314 26.7003 313.8 24.0003Z" fill="white"/>
<path d="M337 24.0999C347.1 23.7999 357.3 23.9999 367.4 23.9999C370.5 23.8999 373.5 26.3999 373.5 29.5999C373.6 36.9999 373.6 44.3999 373.5 51.7999C373.7 55.2999 371 58.8999 367.4 58.9999C359.4 59.1999 351.4 58.9999 343.3 59.0999C340.5 59.0999 337.3 59.2999 335.2 57.0999C332.9 54.9999 333.1 51.7999 333.1 48.8999C333.2 42.0999 333 35.2999 333.2 28.4999C333.2 26.3999 334.8 24.3999 337 24.0999ZM344.5 28.0999C342.1 28.3999 341.2 31.0999 341.3 33.1999C341.3 39.3999 341.2 45.4999 341.3 51.6999C341 53.7999 343.1 55.0999 345 54.9999C350.6 55.0999 356.2 55.0999 361.8 54.9999C363.6 55.0999 365.4 53.6999 365.2 51.7999C365.2 44.9999 365.3 38.1999 365.2 31.3999C365.3 29.4999 363.5 27.9999 361.7 28.0999C356 27.9999 350.2 27.8999 344.5 28.0999Z" fill="white"/>
<path d="M400.8 24.0003C404.8 24.1003 408.7 23.8003 412.7 24.1003C415 24.2003 417 26.3003 417 28.6003C417.3 35.7003 416.9 42.8003 417.2 49.9003C418.1 51.4003 419.1 52.8003 417.7 54.6003C421.3 55.3003 425.1 55.4003 428.7 54.9003C430.4 53.9003 430 51.6003 430.1 50.0003C430 43.2003 430.3 36.4003 429.9 29.7003C429 27.4003 425.9 28.5003 424 28.6003C424.8 29.5003 425.3 30.5003 425.4 31.7003C424.1 32.5003 423.1 32.3003 422.3 31.0003C421.8 28.8003 422.1 26.4003 422 24.1003C425.9 24.2003 429.7 23.9003 433.6 24.3003C436.2 24.6003 438.5 26.9003 438.3 29.6003C438.3 37.7003 438.4 45.7003 438.3 53.8003C438.2 57.4003 434.4 59.6003 431.1 59.3003C425.7 59.0003 420.1 60.0003 414.8 58.6003C410.4 59.7003 405.8 59.3003 401.4 59.2003C399.6 59.3003 398.7 57.8003 397.7 56.6003C396.8 57.8003 395.8 59.2003 394.2 59.2003C389.8 59.4003 385.5 59.4003 381.1 59.2003C379.1 59.2003 376.8 57.9003 376.7 55.7003C376.5 51.4003 376.5 47.0003 376.7 42.7003C376.7 40.3003 378.7 38.2003 381.2 38.2003C385.2 38.0003 389.3 38.0003 393.3 38.2003C395.7 38.2003 397.8 40.3003 397.9 42.7003C398.1 45.6003 398 48.4003 398 51.3003C398.5 51.4003 399.5 51.6003 400.1 51.7003C399.8 52.3003 399.1 53.6003 398.8 54.3003C401.1 56.0003 404.2 55.4003 406.8 55.3003C408.8 55.1003 408.9 52.7003 408.9 51.2003C408.8 44.4003 409 37.6003 408.8 30.8003C408.8 27.8003 405.1 27.9003 403.1 28.8003C403.3 29.4003 403.6 30.5003 403.8 31.1003C399.4 31.8003 401.1 26.5003 400.8 24.0003ZM385.2 42.7003C384.5 46.0003 384.9 49.4003 384.9 52.7003C384.5 54.6003 386.9 55.6003 388.4 54.8003C390 54.2003 389.4 52.1003 389.6 50.8003C389.6 48.3003 389.7 45.9003 389.4 43.4003C389.1 41.6003 386.4 41.5003 385.2 42.7003Z" fill="white"/>
<path d="M444.3 24.4003C446.3 23.8003 448.4 24.0003 450.4 24.0003C459 24.1003 467.7 23.9003 476.3 24.1003C479.6 24.2003 482.2 27.3003 481.9 30.5003C481.9 37.9003 482 45.3003 481.8 52.7003C481.7 56.0003 478.8 59.0003 475.5 59.0003C467.8 59.2003 460 59.0003 452.3 59.1003C449.4 59.0003 446.1 59.5003 443.8 57.3003C441.9 55.7003 441.4 53.2003 441.4 50.8003C441.4 43.7003 441.4 36.6003 441.4 29.5003C441.4 27.4003 442.2 25.1003 444.3 24.4003ZM452.6 28.2003C450.4 28.6003 449.6 31.2003 449.7 33.2003C449.8 39.7003 449.5 46.1003 449.8 52.6003C450 54.7003 452.4 55.1003 454.1 55.0003C459.3 55.0003 464.6 55.1003 469.9 55.0003C471.4 55.0003 473.4 54.4003 473.5 52.6003C473.8 45.8003 473.6 39.0003 473.6 32.2003C473.9 30.0003 472.2 27.7003 469.8 28.0003C464.1 28.1003 458.3 27.8003 452.6 28.2003Z" fill="white"/>
<path d="M393.7 61.6002C395 60.8002 396.4 60.0002 397.7 59.2002C399.1 60.0002 400.5 60.8002 402 61.6002C402 63.2002 402.1 64.8002 402.1 66.4002C402.7 66.1002 403.9 65.4002 404.5 65.1002C404.5 65.9002 404.5 67.5002 404.5 68.3002H391C391 67.5002 390.9 65.9002 390.9 65.2002C391.8 65.6002 392.7 65.9002 393.6 66.3002C393.6 64.7002 393.7 63.1002 393.7 61.6002Z" fill="white"/>
</svg>
