<svg width="24" height="24" viewBox="0 0 24 24" fill="none" xmlns="http://www.w3.org/2000/svg">
<g clip-path="url(#clip0_47_202)">
<path d="M20.5355 12.8119H18.6794C18.8686 13.3299 18.972 13.8888 18.972 14.4715V21.4863C18.972 21.7292 18.9297 21.9624 18.8528 22.1792H21.9213C23.0675 22.1792 24 21.2467 24 20.1005V16.2764C24 14.3661 22.4459 12.8119 20.5355 12.8119Z" fill="black"/>
<path d="M5.02806 14.4715C5.02806 13.8888 5.13142 13.3299 5.3206 12.8119H3.46454C1.55419 12.8119 0 14.3661 0 16.2764V20.1005C0 21.2467 0.932486 22.1793 2.07872 22.1793H5.14726C5.07034 21.9623 5.02806 21.7292 5.02806 21.4863V14.4715Z" fill="black"/>
<path d="M14.1216 11.007H9.87841C7.96806 11.007 6.41387 12.5611 6.41387 14.4715V21.4864C6.41387 21.869 6.72409 22.1793 7.10678 22.1793H16.8933C17.276 22.1793 17.5862 21.869 17.5862 21.4864V14.4715C17.5862 12.5611 16.032 11.007 14.1216 11.007Z" fill="black"/>
<path d="M12 1.82068C9.70258 1.82068 7.83348 3.68978 7.83348 5.98726C7.83348 7.54563 8.69359 8.90665 9.96381 9.62121C10.5663 9.96012 11.2609 10.1538 12 10.1538C12.7391 10.1538 13.4337 9.96012 14.0362 9.62121C15.3065 8.90665 16.1666 7.54558 16.1666 5.98726C16.1666 3.68982 14.2975 1.82068 12 1.82068Z" fill="black"/>
<path d="M4.68366 5.70422C2.96546 5.70422 1.56764 7.10204 1.56764 8.82025C1.56764 10.5385 2.96546 11.9363 4.68366 11.9363C5.11951 11.9363 5.53454 11.846 5.91156 11.6837C6.5634 11.4031 7.10087 10.9063 7.43345 10.284C7.66689 9.84728 7.79969 9.34904 7.79969 8.82025C7.79969 7.10209 6.40187 5.70422 4.68366 5.70422Z" fill="black"/>
<path d="M19.3164 5.70422C17.5982 5.70422 16.2004 7.10204 16.2004 8.82025C16.2004 9.34909 16.3332 9.84733 16.5666 10.284C16.8992 10.9063 17.4366 11.4031 18.0885 11.6837C18.4655 11.846 18.8805 11.9363 19.3164 11.9363C21.0346 11.9363 22.4324 10.5385 22.4324 8.82025C22.4324 7.10204 21.0346 5.70422 19.3164 5.70422Z" fill="black"/>
</g>
<defs>
<clipPath id="clip0_47_202">
<rect width="24" height="24" fill="white"/>
</clipPath>
</defs>
</svg>
