<svg width="24" height="24" viewBox="0 0 24 24" fill="none" xmlns="http://www.w3.org/2000/svg">
<g clip-path="url(#clip0_17_148)">
<path d="M20.5355 12.8119H18.6794C18.8686 13.3299 18.972 13.8888 18.972 14.4715V21.4863C18.972 21.7292 18.9297 21.9624 18.8528 22.1792H21.9213C23.0675 22.1792 24 21.2467 24 20.1005V16.2764C24 14.3661 22.4459 12.8119 20.5355 12.8119Z" fill="#C50035"/>
<path d="M5.02806 14.4715C5.02806 13.8889 5.13142 13.3299 5.3206 12.812H3.46454C1.55419 12.812 0 14.3661 0 16.2765V20.1006C0 21.2468 0.932486 22.1793 2.07872 22.1793H5.14726C5.07034 21.9624 5.02806 21.7293 5.02806 21.4864V14.4715Z" fill="#C50035"/>
<path d="M14.1216 11.007H9.87842C7.96807 11.007 6.41388 12.5611 6.41388 14.4715V21.4864C6.41388 21.869 6.7241 22.1793 7.10679 22.1793H16.8933C17.276 22.1793 17.5862 21.869 17.5862 21.4864V14.4715C17.5862 12.5611 16.032 11.007 14.1216 11.007Z" fill="#C50035"/>
<path d="M12 1.82062C9.70259 1.82062 7.8335 3.68971 7.8335 5.9872C7.8335 7.54557 8.69361 8.90658 9.96383 9.62115C10.5663 9.96006 11.2609 10.1537 12 10.1537C12.7392 10.1537 13.4338 9.96006 14.0362 9.62115C15.3065 8.90658 16.1666 7.54552 16.1666 5.9872C16.1666 3.68976 14.2975 1.82062 12 1.82062Z" fill="#C50035"/>
<path d="M4.68368 5.70416C2.96547 5.70416 1.56766 7.10198 1.56766 8.82018C1.56766 10.5384 2.96547 11.9362 4.68368 11.9362C5.11952 11.9362 5.53456 11.8459 5.91157 11.6836C6.56342 11.403 7.10089 10.9062 7.43347 10.284C7.6669 9.84722 7.7997 9.34898 7.7997 8.82018C7.7997 7.10202 6.40189 5.70416 4.68368 5.70416Z" fill="#C50035"/>
<path d="M19.3164 5.70416C17.5982 5.70416 16.2003 7.10198 16.2003 8.82018C16.2003 9.34903 16.3331 9.84726 16.5666 10.284C16.8992 10.9063 17.4366 11.403 18.0885 11.6836C18.4655 11.8459 18.8805 11.9362 19.3164 11.9362C21.0346 11.9362 22.4324 10.5384 22.4324 8.82018C22.4324 7.10198 21.0346 5.70416 19.3164 5.70416Z" fill="#C50035"/>
</g>
<defs>
<clipPath id="clip0_17_148">
<rect width="24" height="24" fill="white"/>
</clipPath>
</defs>
</svg>
