<svg width="33" height="33" viewBox="0 0 33 33" fill="none" xmlns="http://www.w3.org/2000/svg">
<g clip-path="url(#clip0_198_294)">
<path d="M28.0334 5.11038C25.0113 2.08838 20.9934 0.424072 16.7196 0.424072C12.4459 0.424072 8.42792 2.08838 5.40585 5.11038C2.38392 8.13239 0.719604 12.1503 0.719604 16.4241C0.719604 20.6978 2.38392 24.7158 5.40585 27.7378C8.42792 30.7598 12.4459 32.4241 16.7196 32.4241C20.9934 32.4241 25.0113 30.7598 28.0334 27.7378C31.0553 24.7158 32.7196 20.6978 32.7196 16.4241C32.7196 12.1503 31.0553 8.13239 28.0334 5.11038ZM16.7196 30.5491C12.5403 30.5491 8.77979 28.7239 6.19135 25.8296C7.79604 21.5754 11.9039 18.5491 16.7196 18.5491C13.613 18.5491 11.0946 16.0307 11.0946 12.9241C11.0946 9.81745 13.613 7.29907 16.7196 7.29907C19.8262 7.29907 22.3446 9.81745 22.3446 12.9241C22.3446 16.0307 19.8262 18.5491 16.7196 18.5491C21.5354 18.5491 25.6432 21.5754 27.2479 25.8296C24.6594 28.7239 20.8989 30.5491 16.7196 30.5491Z" fill="black"/>
</g>
<defs>
<clipPath id="clip0_198_294">
<rect width="32" height="32" fill="white" transform="translate(0.719604 0.424072)"/>
</clipPath>
</defs>
</svg>
