<svg width="22" height="21" viewBox="0 0 22 21" fill="none" xmlns="http://www.w3.org/2000/svg">
<g clip-path="url(#clip0_47_227)">
<path d="M10.8504 10.1158C12.2401 10.1158 13.4435 9.61732 14.4267 8.63391C15.41 7.65067 15.9084 6.4476 15.9084 5.05772C15.9084 3.66832 15.41 2.46509 14.4266 1.48152C13.4432 0.498434 12.2399 0 10.8504 0C9.46047 0 8.2574 0.498434 7.27415 1.48168C6.29089 2.46493 5.7923 3.66816 5.7923 5.05772C5.7923 6.4476 6.29089 7.65083 7.27431 8.63408C8.25772 9.61716 9.46095 10.1158 10.8504 10.1158Z" fill="#C50035"/>
<path d="M19.7006 16.1479C19.6722 15.7387 19.6149 15.2924 19.5304 14.821C19.4452 14.3461 19.3355 13.8972 19.2041 13.4869C19.0684 13.0628 18.8838 12.644 18.6557 12.2426C18.4189 11.8261 18.1407 11.4633 17.8286 11.1649C17.5023 10.8526 17.1027 10.6015 16.6406 10.4184C16.1801 10.2362 15.6699 10.144 15.124 10.144C14.9096 10.144 14.7023 10.2319 14.3019 10.4926C14.0555 10.6533 13.7673 10.8391 13.4456 11.0447C13.1705 11.22 12.7978 11.3842 12.3375 11.5329C11.8884 11.6782 11.4324 11.7519 10.9824 11.7519C10.5323 11.7519 10.0765 11.6782 9.62694 11.5329C9.16711 11.3844 8.79445 11.2201 8.51968 11.0449C8.201 10.8412 7.91261 10.6554 7.66251 10.4924C7.26261 10.2318 7.05513 10.1438 6.84076 10.1438C6.29474 10.1438 5.78461 10.2362 5.3243 10.4186C4.86256 10.6014 4.46281 10.8524 4.13613 11.165C3.82419 11.4637 3.54589 11.8262 3.30941 12.2426C3.08142 12.644 2.89685 13.0626 2.76099 13.487C2.62977 13.8974 2.52002 14.3461 2.43478 14.821C2.35035 15.2917 2.29299 15.7382 2.26463 16.1484C2.23676 16.5502 2.22266 16.9673 2.22266 17.3885C2.22266 18.4847 2.57113 19.3721 3.2583 20.0266C3.93698 20.6724 4.835 21.0001 5.92704 21.0001H16.0387C17.1307 21.0001 18.0284 20.6726 18.7073 20.0266C19.3946 19.3726 19.7431 18.485 19.7431 17.3883C19.7429 16.9652 19.7286 16.5478 19.7006 16.1479Z" fill="#C50035"/>
</g>
<defs>
<clipPath id="clip0_47_227">
<rect width="21" height="21" fill="white" transform="translate(0.5)"/>
</clipPath>
</defs>
</svg>
